<?xml version="1.0" encoding="UTF-8" standalone="no"?>
<!-- Created with Inkscape (http://www.inkscape.org/) -->

<svg
   xmlns:dc="http://purl.org/dc/elements/1.1/"
   xmlns:cc="http://creativecommons.org/ns#"
   xmlns:rdf="http://www.w3.org/1999/02/22-rdf-syntax-ns#"
   xmlns:svg="http://www.w3.org/2000/svg"
   xmlns="http://www.w3.org/2000/svg"
   xmlns:sodipodi="http://sodipodi.sourceforge.net/DTD/sodipodi-0.dtd"
   xmlns:inkscape="http://www.inkscape.org/namespaces/inkscape"
   width="920mm"
   height="297mm"
   viewBox="0 0 920 297"
   version="1.1"
   id="svg8"
   inkscape:export-filename="D:\SoftwareStudio\timemap\favicon.png"
   inkscape:export-xdpi="96"
   inkscape:export-ydpi="96"
   inkscape:version="0.92.1 r15371"
   sodipodi:docname="logo.svg">
  <defs
     id="defs2">
    <inkscape:perspective
       sodipodi:type="inkscape:persp3d"
       inkscape:vp_x="0 : 148.5 : 1"
       inkscape:vp_y="0 : 1000 : 0"
       inkscape:vp_z="210.00001 : 148.5 : 1"
       inkscape:persp3d-origin="105.00001 : 99 : 1"
       id="perspective4572" />
  </defs>
  <sodipodi:namedview
     id="base"
     pagecolor="#ffffff"
     bordercolor="#666666"
     borderopacity="1.0"
     inkscape:pageopacity="0.0"
     inkscape:pageshadow="2"
     inkscape:zoom="0.24748737"
     inkscape:cx="1273.2636"
     inkscape:cy="790.36459"
     inkscape:document-units="mm"
     inkscape:current-layer="g4611"
     showgrid="false"
     inkscape:window-width="1366"
     inkscape:window-height="705"
     inkscape:window-x="-8"
     inkscape:window-y="-8"
     inkscape:window-maximized="1" />
  <metadata
     id="metadata5">
    <rdf:RDF>
      <cc:Work
         rdf:about="">
        <dc:format>image/svg+xml</dc:format>
        <dc:type
           rdf:resource="http://purl.org/dc/dcmitype/StillImage" />
        <dc:title />
      </cc:Work>
    </rdf:RDF>
  </metadata>
  <g
     inkscape:label="圖層 1"
     inkscape:groupmode="layer"
     id="layer1">
    <g
       id="g4611"
       transform="matrix(1.2135679,0,0,1.2135679,0.85030551,-14.597744)">
      <path
         inkscape:connector-curvature="0"
         id="path4543"
         d="M 93.758328,224.10126 C 63.065517,219.95925 35.326541,198.80786 23.018955,170.16137 8.6487029,136.71395 16.309124,97.056772 42.076945,71.500239 59.808039,53.914515 81.128861,45.002443 105.469,45.002443 c 25.28185,0 48.19216,9.704898 65.38002,27.695229 10.59281,11.087367 17.70164,23.82505 22.09425,39.588778 2.01674,7.23748 2.15788,8.74291 2.12639,22.68066 -0.0308,13.62856 -0.21497,15.59766 -2.11467,22.61088 -9.00542,33.2457 -35.45687,58.27681 -69.16239,65.44871 -7.05589,1.50134 -22.7191,2.06173 -30.034272,1.07456 z"
         style="fill:#ffffff;fill-opacity:1;stroke:none;stroke-width:35.63571167;stroke-miterlimit:4;stroke-dasharray:none;stroke-opacity:1" />
      <path
         inkscape:connector-curvature="0"
         id="path4544"
         d="M 91.537822,59.509208 C 87.759533,53.727806 84.612883,48.750956 84.545263,48.449543 84.2678,47.212751 96.864888,45.407996 105.78029,45.407253 c 19.4564,-0.0016 38.86714,6.44331 54.27521,18.020976 0.82295,0.618363 0.95474,0.867921 0.52902,1.001758 -0.31183,0.09803 -13.5788,1.309814 -29.48215,2.692852 -15.90335,1.383038 -29.76562,2.600878 -30.80505,2.706309 l -1.889883,0.191699 z"
         style="fill:#eec1b4;fill-opacity:1;stroke:none;stroke-width:11.4285717;stroke-miterlimit:4;stroke-dasharray:none;stroke-opacity:1" />
      <path
         inkscape:connector-curvature="0"
         id="path4548"
         d="m 42.727722,70.962655 c 7.357616,-7.111084 14.346487,-12.000709 23.55174,-16.477501 4.741352,-2.305862 14.403099,-6.015963 14.677271,-5.636056 1.494909,2.071436 13.868193,21.243874 13.772126,21.339945 -0.124204,0.1242 -55.26278,5.100703 -56.074402,5.060965 -0.189878,-0.0093 1.643091,-1.938604 4.073265,-4.287353 z"
         style="fill:#d7eeb4;fill-opacity:1;stroke:none;stroke-width:11.4285717;stroke-miterlimit:4;stroke-dasharray:none;stroke-opacity:1" />
      <path
         inkscape:connector-curvature="0"
         id="path4540"
         d="m 97.462497,226.21794 c -0.519719,-0.0751 -2.457641,-0.32533 -4.306496,-0.55613 -4.326848,-0.54012 -10.360306,-1.90781 -14.941701,-3.38704 -4.35637,-1.40657 -11.745851,-4.46888 -11.745851,-4.86766 0,-0.15727 19.092523,-12.16723 42.427821,-26.68878 23.3353,-14.52155 43.30213,-26.95682 44.37072,-27.63392 l 1.94289,-1.23111 10.11195,15.38761 c 5.56158,8.46318 10.18155,15.64341 10.26661,15.95607 0.21455,0.78862 -6.89584,8.22037 -11.60034,12.12464 -8.77702,7.28404 -19.3101,13.16248 -29.67293,16.56024 -10.31033,3.38055 -18.19329,4.60638 -29.09288,4.52405 -3.74817,-0.0283 -7.240075,-0.11289 -7.759793,-0.18797 z"
         style="fill:#aabaf8;fill-opacity:1;stroke:none;stroke-width:11.4285717;stroke-miterlimit:4;stroke-dasharray:none;stroke-opacity:1" />
      <path
         inkscape:connector-curvature="0"
         id="path4550"
         d="m 167.95894,175.71912 c -5.35406,-8.15679 -9.79698,-15.00288 -9.87314,-15.21354 -0.11602,-0.32087 36.3252,-23.28875 37.92332,-23.90201 0.44141,-0.16939 0.49119,0.36065 0.29612,3.15323 -1.07998,15.46024 -4.23745,26.85073 -10.88428,39.26457 -1.93906,3.62146 -7.07035,11.52828 -7.4815,11.52828 -0.13522,0 -4.62645,-6.67374 -9.98052,-14.83053 z"
         style="fill:#eed7b4;fill-opacity:1;stroke:none;stroke-width:11.4285717;stroke-miterlimit:4;stroke-dasharray:none;stroke-opacity:1" />
      <path
         inkscape:connector-curvature="0"
         id="path4798"
         d="m 45.072171,187.96137 c -9.389409,-16.05132 -15.609204,-27.1134 -15.609204,-27.7614 0,-0.53696 14.152705,-9.09847 27.735442,-16.77823 5.939774,-3.35838 4.828222,-3.98868 10.792198,6.11965 2.182519,3.69914 4.220911,6.73085 4.529762,6.73713 0.434615,0.009 7.670929,-4.24459 16.914005,-9.94185 0.203663,-0.12554 0.842534,0.83931 1.419704,2.1441 0.577167,1.30478 1.559848,2.64552 2.183731,2.97941 0.623876,0.33389 1.01139,0.806 0.861131,1.04912 -0.15026,0.24312 -3.584726,2.40688 -7.632155,4.80835 -4.047426,2.40147 -7.941222,4.80831 -8.652883,5.34853 l -1.293929,0.98224 4.100259,6.98745 c 2.255141,3.8431 4.100258,7.21945 4.100258,7.50299 0,0.64961 -32.130015,19.84512 -33.217339,19.84512 -0.202478,0 -3.006418,-4.51018 -6.23098,-10.02261 z"
         style="fill:none;fill-opacity:1;stroke:none;stroke-width:16.16244125;stroke-linecap:butt;stroke-linejoin:miter;stroke-miterlimit:4;stroke-dasharray:none;stroke-opacity:1" />
      <path
         inkscape:connector-curvature="0"
         id="path4828"
         d="M 129.14297,115.45798 C 114.22352,92.762113 101.98404,74.020167 101.94413,73.809207 c -0.0452,-0.238731 10.70287,-1.348928 28.46465,-2.940198 15.69546,-1.406149 28.82033,-2.564646 29.16638,-2.574441 0.90564,-0.02564 10.05515,8.918673 13.48452,13.182095 11.39775,14.169781 17.87211,30.790797 19.16341,49.196437 l 0.25405,3.62105 -18.0041,11.21452 c -9.90225,6.16799 -18.04903,11.21452 -18.10395,11.21452 -0.0549,0 -12.30667,-18.56935 -27.22612,-41.26521 z"
         style="fill:#d7eeb4;fill-opacity:1;stroke:none;stroke-width:5.71428585;stroke-linecap:butt;stroke-linejoin:miter;stroke-miterlimit:4;stroke-dasharray:none;stroke-opacity:1" />
      <path
         inkscape:connector-curvature="0"
         id="path4832"
         d="M 60.506809,146.38359 C 43.447087,118.46634 29.492576,95.382226 29.496783,95.085538 29.513161,93.93073 36.135504,83.952102 39.212063,80.446447 L 40.63943,78.82 65.963835,76.583416 c 13.928423,-1.230122 26.51983,-2.343129 27.980904,-2.473351 l 2.656499,-0.236765 27.770582,42.24856 c 15.27382,23.2367 27.82105,42.44971 27.88272,42.69557 0.0617,0.24585 -12.26979,8.154 -27.40327,17.57364 -15.13347,9.41965 -28.822971,17.94214 -30.421097,18.93888 l -2.905686,1.81225 z"
         style="fill:#f1f1b1;fill-opacity:1;stroke:none;stroke-width:5.71399975;stroke-linecap:butt;stroke-linejoin:miter;stroke-miterlimit:4;stroke-dasharray:none;stroke-opacity:1" />
      <path
         inkscape:connector-curvature="0"
         id="path4834"
         d="m 63.060142,211.37361 c -20.944372,-11.9373 -36.08526,-32.15552 -41.63389,-55.59536 -2.906977,-12.28035 -2.906977,-27.40716 0,-39.6875 1.599036,-6.75503 5.160417,-16.520712 5.769528,-15.82065 0.470148,0.54034 60.099938,98.28199 60.297992,98.83691 0.156144,0.43752 -8.726969,6.19915 -20.154482,13.0723 l -1.394222,0.83856 z"
         style="fill:#d1b1f1;fill-opacity:1;stroke:none;stroke-width:8.16285706;stroke-linecap:butt;stroke-linejoin:miter;stroke-miterlimit:4;stroke-dasharray:none;stroke-opacity:1" />
      <path
         inkscape:connector-curvature="0"
         id="path4521"
         d="M 168.57737,65.300593 32.127977,77.395832"
         style="fill:none;stroke:#ffffff;stroke-width:6;stroke-linecap:butt;stroke-linejoin:miter;stroke-miterlimit:4;stroke-dasharray:none;stroke-opacity:1" />
      <path
         inkscape:connector-curvature="0"
         id="path4519"
         d="M 81.642856,47.157736 178.02678,193.8125"
         style="fill:none;stroke:#ffffff;stroke-width:6;stroke-linecap:butt;stroke-linejoin:miter;stroke-miterlimit:4;stroke-dasharray:none;stroke-opacity:1" />
      <path
         inkscape:connector-curvature="0"
         id="path4515"
         d="M 201.88005,131.00444 57.789586,220.71281"
         style="fill:none;stroke:#ffffff;stroke-width:6;stroke-linecap:butt;stroke-linejoin:miter;stroke-miterlimit:4;stroke-dasharray:none;stroke-opacity:1" />
      <path
         inkscape:connector-curvature="0"
         id="path4830"
         d="M 24.568452,91.758926 91.092261,200.61607"
         style="fill:none;stroke:#ffffff;stroke-width:6;stroke-linecap:butt;stroke-linejoin:miter;stroke-miterlimit:4;stroke-dasharray:none;stroke-opacity:1" />
      <g
         style="stroke-width:12;stroke-miterlimit:4;stroke-dasharray:none"
         transform="translate(1.5119048,6.8035714)"
         id="g4846">
        <path
           style="fill:none;stroke:#ff7c7c;stroke-width:12;stroke-linecap:butt;stroke-linejoin:miter;stroke-miterlimit:4;stroke-dasharray:none;stroke-opacity:1"
           d="M 185.97457,81.026527 84.611306,141.55127 60.557049,98.78815 l 0.267269,0.267269"
           id="path4715"
           inkscape:connector-curvature="0"
           sodipodi:nodetypes="cccc" />
        <ellipse
           style="fill:#ff7c7c;fill-opacity:1;stroke:#ff7c7c;stroke-width:12;stroke-miterlimit:4;stroke-dasharray:none;stroke-opacity:1"
           id="path4668-5-1-5"
           cx="84.878578"
           cy="141.284"
           rx="5.9108205"
           ry="5.710454" />
        <ellipse
           style="fill:#ff7c7c;fill-opacity:1;stroke:#ff7c7c;stroke-width:12;stroke-miterlimit:4;stroke-dasharray:none;stroke-opacity:1"
           id="path4668-5-1-8"
           cx="155.97227"
           cy="99.322685"
           rx="5.9108205"
           ry="5.710454" />
        <ellipse
           style="fill:#ff7c7c;fill-opacity:1;stroke:#ff7c7c;stroke-width:12;stroke-miterlimit:4;stroke-dasharray:none;stroke-opacity:1"
           id="path4668-5-1"
           cx="61.519238"
           cy="98.69149"
           rx="5.9108205"
           ry="5.710454" />
      </g>
      <path
         inkscape:connector-curvature="0"
         id="path4511"
         d="m 105.74628,37.30943 c -54.435314,-10e-7 -98.6484354,44.213124 -98.6484377,98.64844 -4e-6,54.43532 44.2131187,98.65039 98.6484377,98.65039 54.43531,0 98.65039,-44.21508 98.65039,-98.65039 -1e-5,-54.435314 -44.21508,-98.648438 -98.65039,-98.64844 z m 0,8 c 50.11179,2e-6 90.65038,40.536647 90.65039,90.64844 0,50.11179 -40.5386,90.65039 -90.65039,90.65039 -50.111797,0 -90.648441,-40.5386 -90.648437,-90.65039 2e-6,-50.111795 40.536644,-90.648441 90.648437,-90.64844 z"
         style="color:#000000;font-style:normal;font-variant:normal;font-weight:normal;font-stretch:normal;font-size:medium;line-height:normal;font-family:sans-serif;font-variant-ligatures:normal;font-variant-position:normal;font-variant-caps:normal;font-variant-numeric:normal;font-variant-alternates:normal;font-feature-settings:normal;text-indent:0;text-align:start;text-decoration:none;text-decoration-line:none;text-decoration-style:solid;text-decoration-color:#000000;letter-spacing:normal;word-spacing:normal;text-transform:none;writing-mode:lr-tb;direction:ltr;text-orientation:mixed;dominant-baseline:auto;baseline-shift:baseline;text-anchor:start;white-space:normal;shape-padding:0;clip-rule:nonzero;display:inline;overflow:visible;visibility:visible;opacity:1;isolation:auto;mix-blend-mode:normal;color-interpolation:sRGB;color-interpolation-filters:linearRGB;solid-color:#000000;solid-opacity:1;vector-effect:none;fill:#0b000d;fill-opacity:1;fill-rule:nonzero;stroke:#ebebeb;stroke-width:8;stroke-linecap:butt;stroke-linejoin:miter;stroke-miterlimit:4;stroke-dasharray:none;stroke-dashoffset:0;stroke-opacity:1;color-rendering:auto;image-rendering:auto;shape-rendering:auto;text-rendering:auto;enable-background:accumulate" />
    </g>
    <g
       id="g4635">
      <path
         inkscape:connector-curvature="0"
         id="path4549"
         d="m 256.41896,65.754165 c 114.71716,0 116.41668,0 116.41668,0"
         style="fill:none;stroke:#ebebeb;stroke-width:15;stroke-linecap:butt;stroke-linejoin:bevel;stroke-miterlimit:4;stroke-dasharray:none;stroke-opacity:1" />
      <path
         inkscape:connector-curvature="0"
         id="path4551"
         d="M 312.35945,66.510117 V 241.49417"
         style="fill:none;stroke:#ebebeb;stroke-width:15;stroke-linecap:butt;stroke-linejoin:bevel;stroke-miterlimit:4;stroke-dasharray:none;stroke-opacity:1" />
      <path
         inkscape:connector-curvature="0"
         id="path4553"
         d="m 365.12478,65.829763 h 91.5777"
         style="fill:none;stroke:#ebebeb;stroke-width:15;stroke-linecap:butt;stroke-linejoin:bevel;stroke-miterlimit:4;stroke-dasharray:none;stroke-opacity:1" />
      <path
         inkscape:connector-curvature="0"
         id="path4561"
         d="M 401.41051,65.073809 V 241.96674"
         style="fill:none;stroke:#ebebeb;stroke-width:15;stroke-linecap:butt;stroke-linejoin:bevel;stroke-miterlimit:4;stroke-dasharray:none;stroke-opacity:1" />
      <path
         inkscape:connector-curvature="0"
         id="path4563"
         d="M 354.60171,234.25597 H 457.25276"
         style="fill:none;stroke:#ebebeb;stroke-width:15;stroke-linecap:butt;stroke-linejoin:bevel;stroke-miterlimit:4;stroke-dasharray:none;stroke-opacity:1" />
      <path
         inkscape:connector-curvature="0"
         id="path4565"
         d="M 449.97806,239.24529 V 60.840473 L 498.16107,240.66195 546.50264,60.248677 V 243.781"
         style="fill:none;stroke:#ebebeb;stroke-width:15;stroke-linecap:butt;stroke-linejoin:bevel;stroke-miterlimit:4;stroke-dasharray:none;stroke-opacity:1" />
      <path
         sodipodi:nodetypes="cccc"
         inkscape:connector-curvature="0"
         id="path4567"
         d="m 636.68661,236.57836 -90.03008,-0.34693 -0.45626,-170.963452 h 90.26494"
         style="fill:none;stroke:#ebebeb;stroke-width:15;stroke-linecap:butt;stroke-linejoin:miter;stroke-miterlimit:4;stroke-dasharray:none;stroke-opacity:1" />
      <path
         inkscape:connector-curvature="0"
         id="path4569"
         d="m 548.74411,148.909 h 77.436"
         style="fill:none;stroke:#ebebeb;stroke-width:15;stroke-linecap:butt;stroke-linejoin:bevel;stroke-miterlimit:4;stroke-dasharray:none;stroke-opacity:1" />
      <path
         inkscape:connector-curvature="0"
         id="path4565-5"
         d="M 629.30519,237.66845 V 59.263621 L 677.4882,239.08511 725.82977,58.671825 V 242.20416"
         style="fill:none;stroke:#ebebeb;stroke-width:15;stroke-linecap:butt;stroke-linejoin:bevel;stroke-miterlimit:4;stroke-dasharray:none;stroke-opacity:1" />
      <path
         sodipodi:nodetypes="ccc"
         inkscape:connector-curvature="0"
         id="path4586"
         d="M 726.49025,238.64054 773.19844,59.512357 820.40741,240.50959"
         style="fill:none;stroke:#ebebeb;stroke-width:15;stroke-linecap:butt;stroke-linejoin:bevel;stroke-miterlimit:4;stroke-dasharray:none;stroke-opacity:1" />
      <path
         inkscape:connector-curvature="0"
         id="path4588"
         d="m 752.19264,161.00423 h 43.84524 v 0"
         style="fill:none;stroke:#ebebeb;stroke-width:15;stroke-linecap:butt;stroke-linejoin:bevel;stroke-miterlimit:4;stroke-dasharray:none;stroke-opacity:1" />
      <path
         sodipodi:nodetypes="ccccc"
         inkscape:connector-curvature="0"
         id="path4590"
         d="M 820.67468,242.38048 818.62125,66.563843 h 76.7403 V 150.4209 h -76.74028"
         style="fill:none;stroke:#ebebeb;stroke-width:15;stroke-linecap:butt;stroke-linejoin:miter;stroke-miterlimit:4;stroke-dasharray:none;stroke-opacity:1" />
    </g>
  </g>
</svg>
