<svg version="1" xmlns="http://www.w3.org/2000/svg" width="85.333" height="85.333" viewBox="0 0 64.000000 64.000000"><path d="M20.2 2.1C13.7 4.6 6 12 2.9 18.6-.5 25.9-.4 37.5 3.1 45c3.4 7.1 8.9 12.6 15.8 15.9 8 3.7 19.4 3.7 26.7-.1 10.8-5.7 17.6-16 18-27.6.3-6.6-1.4-14.3-3.2-14.9-.9-.3-3.2 1.6-6.2 5.2-.7.8-2.3 1.5-3.5 1.5-2.8 0-18.4 9.3-21.9 13.1-1.5 1.6-3.4 2.9-4.2 2.9-1.7 0-5.2-4.7-4.3-5.7.9-.9-3.1-8.1-5.8-10.5-3.3-2.8-3.3-6.5 0-8 2-.9 2.8-.8 4.4.6 1.1 1 1.8 2.7 1.5 3.9C20 23.7 24.5 32 26.3 32c2 0 18.1-9.9 20.2-12.5 1.1-1.3 3.2-2.6 4.7-2.9 4.9-.8 6.9-2.5 5.8-4.5-1.4-2.8-8.1-7.8-13.1-9.9C37.6-.5 27-.5 20.2 2.1z"/></svg>